<?xml version="1.0" encoding="UTF-8"?>
<svg width="61px" height="60px" viewBox="0 0 61 60" version="1.1" xmlns="http://www.w3.org/2000/svg" xmlns:xlink="http://www.w3.org/1999/xlink">
    <!-- Generator: Sketch 44.1 (41455) - http://www.bohemiancoding.com/sketch -->
    <title>Group 9</title>
    <desc>Created with Sketch.</desc>
    <defs>
        <polygon id="path-1" points="0.138524913 0 60.138 0 60.138 60 0.138524913 60"></polygon>
    </defs>
    <g id="Page-2" stroke="none" stroke-width="1" fill="none" fill-rule="evenodd">
        <g id="Mouseovers-/-Animations" transform="translate(-620.000000, -6702.000000)">
            <g id="Animation:-Page-loader" transform="translate(378.000000, 6591.000000)">
                <g id="Le-Bijou-Symbol" transform="translate(0.000000, 111.000000)">
                    <g id="Group-10" transform="translate(0.000000, 0.000400)">
                        <g id="Group-9" transform="translate(242.000000, 0.000000)">
                            <mask id="mask-2" fill="white">
                                <use xlink:href="#path-1"></use>
                            </mask>
                            <g id="Clip-8"></g>
                            <path d="M55.4434,37.7321 L37.8694,55.3071 C35.8044,57.3711 33.0594,58.5081 30.1384,58.5081 C27.2174,58.5081 24.4704,57.3711 22.4054,55.3041 L4.8324,37.7311 C2.7664,35.6661 1.6294,32.9201 1.6294,30.0001 C1.6294,27.0791 2.7664,24.3331 4.8314,22.2681 L21.0584,6.0411 L21.0584,16.3961 L21.0584,22.4511 L21.0584,33.0421 C21.0584,33.0421 21.0584,37.5811 25.5994,37.5811 L34.6794,37.5811 C34.6794,37.5811 39.2184,37.5811 39.2184,33.0421 L39.2184,26.9901 C39.2184,26.9901 39.2184,22.4511 34.6794,22.4511 L27.4944,22.4511 L27.4904,22.4491 L27.4884,22.4491 C27.4884,22.4491 27.4864,22.4511 27.4854,22.4511 C27.2824,22.4511 27.1174,22.6141 27.1114,22.8181 L27.1104,22.8261 C27.1104,22.8311 27.1114,22.8321 27.1114,22.8321 L27.1114,23.5771 L27.1104,23.5841 C27.1104,23.5881 27.1114,23.5921 27.1114,23.5921 C27.1174,23.7951 27.2754,23.9541 27.4734,23.9621 L27.7604,23.9621 L34.6794,23.9621 C34.6794,23.9621 37.7044,23.9621 37.7044,26.9901 L37.7044,33.0421 C37.7044,33.0421 37.7044,36.0681 34.6794,36.0681 L25.5994,36.0681 C25.5994,36.0681 22.5724,36.0681 22.5724,33.0421 L22.5724,16.3961 L22.5724,4.5421 C24.6184,2.5771 27.2934,1.4911 30.1384,1.4911 C33.0594,1.4911 35.8054,2.6281 37.8714,4.6941 L55.4434,22.2671 C57.5094,24.3321 58.6474,27.0771 58.6474,29.9991 C58.6474,32.9201 57.5094,35.6661 55.4434,37.7321 M56.4984,21.2121 L38.9254,3.6391 C36.4994,1.2131 33.3194,-0.0009 30.1384,-0.0009 C27.4654,-0.0009 24.7974,0.8681 22.5724,2.5831 C22.1504,2.9081 21.7384,3.2521 21.3514,3.6391 L21.0584,3.9321 L3.7774,21.2131 C-1.0756,26.0661 -1.0736,33.9341 3.7784,38.7861 L21.3514,56.3591 C23.7784,58.7871 26.9574,60.0001 30.1384,60.0001 C33.3184,60.0001 36.4984,58.7871 38.9244,56.3611 L56.4984,38.7861 C61.3524,33.9331 61.3514,26.0651 56.4984,21.2121" id="Fill-7" fill="#001E2E" mask="url(#mask-2)"></path>
                        </g>
                    </g>
                </g>
            </g>
        </g>
    </g>
</svg>